<svg xmlns="http://www.w3.org/2000/svg" viewBox="0 0 64 64" fill="none">
  <defs>
    <linearGradient id="g" x1="0" y1="0" x2="64" y2="64" gradientUnits="userSpaceOnUse">
      <stop offset="0%" stop-color="#6366f1"/>
      <stop offset="100%" stop-color="#a855f7"/>
    </linearGradient>
  </defs>
  <rect width="64" height="64" rx="14" fill="#020617"/>
  <path d="M32 10L14 26v20a4 4 0 004 4h28a4 4 0 004-4V26L32 10z" stroke="url(#g)" stroke-width="3" fill="none"/>
  <path d="M32 18l-12 10v14a2 2 0 002 2h20a2 2 0 002-2V28L32 18z" fill="url(#g)" opacity="0.15"/>
  <circle cx="32" cy="32" r="6" stroke="url(#g)" stroke-width="2.5" fill="none"/>
  <circle cx="32" cy="32" r="2" fill="url(#g)"/>
  <path d="M32 26v-3M32 41v-3M26 32h-3M41 32h-3" stroke="url(#g)" stroke-width="1.5" stroke-linecap="round"/>
</svg>
